<svg id="Layer_1" enable-background="new 0 0 506.649 506.649" height="512" viewBox="0 0 506.649 506.649" width="512" xmlns="http://www.w3.org/2000/svg"><path d="m425.498 27.181c-84.918-19.412-101.263 87.203-124.221 120.266-10.562 15.21-21.83 27.052-32.709 37.267-28.96-56.612-55.304-175.248-159.238-151.496-123.618 28.246-150.231 203.565-39.306 336.606 50.82 60.951 128.137 111.987 205.027 111.987 55.637 0 99.981-28.443 120.717-79.104 11.501-28.104 11.238-52.893-.795-75.741 60.401-37.246 106.819-103.456 111.344-174.436 3.798-59.586-25.121-112.624-80.819-125.349zm-129.34 243.606c-8.187 2.682-16.793 4.064-25.539 4.064-72.25 0-109.285-87.635-58.873-139.34 24.207 52.633 27.216 79.715 84.412 135.276zm69.994 119.8c-23.116 56.475-79.468 69.647-139.048 51.571-95.167-28.872-187.66-131.538-194.647-241.145-5.015-78.68 34.798-125.355 84.001-136.6 37.306-8.525 60.399 8.584 80.066 41.568-25.288 21.548-40.017 53.005-40.017 86.757 0 85.269 90.365 139.979 165.608 101.83 39.878 35.215 61.25 53.959 44.037 96.019zm9.812-89.48c-24.066-25.832-57.96-47.94-89.707-89.15 40.46-36.926 48.929-56.963 61.991-87.972 18.95-44.981 34.072-73.851 70.122-65.609 85.469 19.528 75.3 172.411-42.406 242.731z"/></svg>