<?xml version="1.0" encoding="iso-8859-1"?>
<!-- Generator: Adobe Illustrator 19.0.0, SVG Export Plug-In . SVG Version: 6.00 Build 0)  -->
<svg version="1.1" id="Capa_1" xmlns="http://www.w3.org/2000/svg" xmlns:xlink="http://www.w3.org/1999/xlink" x="0px" y="0px"
	 viewBox="0 0 512.001 512.001" style="enable-background:new 0 0 512.001 512.001;" xml:space="preserve">
<g>
	<g>
		<path d="M512.001,224.063c0-11.028-8.972-20-20-20h-226c-11.028,0-20,8.972-20,20v34c0,0.114,0.013,0.225,0.017,0.339
			c-0.004,0.113-0.017,0.224-0.017,0.339V376.97c0,5.523,4.477,10,10,10s10-4.477,10-10v-37.622l44.336-21.337
			c3.462-1.666,5.664-5.168,5.664-9.011v-40.938h53v45.013v39.076L341.134,492h-75.133v-32.333c0-5.523-4.477-10-10-10
			s-10,4.477-10,10V502c0,5.523,4.477,10,10,10h93.337c4.77,0,8.875-3.368,9.807-8.046l19.856-99.645l19.856,99.646
			c0.932,4.678,5.038,8.046,9.807,8.046h93.337c5.523,0,10-4.477,10-10V258.74c0-0.114-0.013-0.225-0.017-0.339
			c0.004-0.113,0.017-0.224,0.017-0.339V224.063z M296.001,302.715l-30,14.438v-49.09h30V302.715z M492.001,492h-75.133
			l-27.867-139.848v-39.076v-45.013h53V309c0,3.842,2.201,7.345,5.664,9.011l44.336,21.337V492z M492.001,317.153l-30-14.438
			v-34.652h30V317.153z M492.001,248.063h-226v-24h226V248.063z"/>
	</g>
</g>
<g>
	<g>
		<path d="M419.837,95.308l-63.025-74.153C345.384,7.71,328.712,0,311.069,0h-46.513c-5.523,0-10,4.477-10,10v16.928
			c0,23.958-19.491,43.449-43.447,43.45c-23.957,0-43.448-19.49-43.448-43.447V10c0-5.523-4.477-10-10-10h-46.513
			C93.504,0,76.833,7.71,65.406,21.154L2.381,95.307c-3.375,3.97-3.135,9.866,0.551,13.549l56.255,56.223
			c3.905,3.903,10.236,3.903,14.14-0.002l18.466-18.466v162.125c0,15.408,12.535,27.942,27.943,27.942h83.265
			c5.523,0,10-4.477,10-10s-4.477-10-10-10h-83.265c-4.38,0-7.943-3.563-7.943-7.942V122.468c0-4.044-2.437-7.691-6.173-9.239
			c-3.735-1.548-8.037-0.692-10.898,2.168l-28.468,28.468l-42.66-42.635l57.051-67.125C88.265,25.142,99.383,20,111.148,20h36.513
			v6.93c0,34.985,28.462,63.447,63.448,63.447c34.984-0.001,63.447-28.464,63.447-63.45V20h36.513
			c11.765,0,22.882,5.142,30.502,14.106l57.057,67.13l-42.622,42.672l-28.511-28.512c-2.861-2.859-7.162-3.717-10.898-2.167
			c-3.737,1.548-6.173,5.194-6.173,9.239V179c0,5.523,4.477,10,10,10s10-4.477,10-10v-32.39l18.516,18.516
			c1.875,1.875,4.418,2.929,7.071,2.929c0.001,0,0.002,0,0.003,0c2.653-0.001,5.197-1.056,7.072-2.933l56.207-56.271
			C422.973,105.167,423.21,99.275,419.837,95.308z"/>
	</g>
</g>
<g>
	<g>
		<path d="M201.001,125h-52c-5.523,0-10,4.477-10,10v53c0,4.168,2.586,7.9,6.489,9.363l26,9.75c1.132,0.424,2.322,0.637,3.511,0.637
			c1.189,0,2.379-0.212,3.511-0.637l26-9.75c3.903-1.463,6.489-5.195,6.489-9.363v-53C211.001,129.477,206.524,125,201.001,125z
			 M191.001,181.07l-16,6l-16-6V145h32V181.07z"/>
	</g>
</g>
<g>
	<g>
		<path d="M263.071,410.6c-1.86-1.87-4.44-2.93-7.07-2.93s-5.21,1.06-7.07,2.93c-1.86,1.86-2.93,4.43-2.93,7.07
			c0,2.63,1.07,5.21,2.93,7.07s4.44,2.93,7.07,2.93s5.21-1.07,7.07-2.93c1.86-1.86,2.93-4.44,2.93-7.07
			C266.001,415.03,264.931,412.46,263.071,410.6z"/>
	</g>
</g>
<g>
</g>
<g>
</g>
<g>
</g>
<g>
</g>
<g>
</g>
<g>
</g>
<g>
</g>
<g>
</g>
<g>
</g>
<g>
</g>
<g>
</g>
<g>
</g>
<g>
</g>
<g>
</g>
<g>
</g>
</svg>
