<?xml version="1.0" encoding="iso-8859-1"?>
<!-- Generator: Adobe Illustrator 19.0.0, SVG Export Plug-In . SVG Version: 6.00 Build 0)  -->
<svg version="1.1" id="Capa_1" xmlns="http://www.w3.org/2000/svg" xmlns:xlink="http://www.w3.org/1999/xlink" x="0px" y="0px"
	 viewBox="0 0 482.4 482.4" style="enable-background:new 0 0 482.4 482.4;" xml:space="preserve">
<g>
	<g>
		<path d="M449.2,304v16c8.837,0,16,7.163,16,16c0,17.673-14.327,32-32,32h-48c-17.673,0-32-14.327-32-32c0-8.837,7.163-16,16-16
			v-16c-17.673,0-32,14.327-32,32c0,26.51,21.49,48,48,48h48c26.51,0,48-21.49,48-48C481.2,318.327,466.873,304,449.2,304z"/>
	</g>
</g>
<g>
	<g>
		<rect x="385.2" y="312" width="48" height="16"/>
	</g>
</g>
<g>
	<g>
		<path d="M377.2,208v16c8.837,0,16,7.163,16,16c0,17.673-14.327,32-32,32h-48c-17.673,0-32-14.327-32-32c0-8.837,7.163-16,16-16
			v-16c-17.673,0-32,14.327-32,32c0,26.51,21.49,48,48,48h48c26.51,0,48-21.49,48-48C409.2,222.327,394.873,208,377.2,208z"/>
	</g>
</g>
<g>
	<g>
		<rect x="313.2" y="216" width="48" height="16"/>
	</g>
</g>
<g>
	<g>
		<path d="M361.76,429.6h-17.92l-15.04-50c-1.056-3.498-4.349-5.836-8-5.68h-32c-3.44-34.56-25.2-61.92-51.6-61.92
			c-26.4,0-48.8,28.08-52,64h-8c-3.2-35.92-25.28-64-52-64c-27.12,0-49.36,28.88-51.76,65.52H48.48
			c-3.614,0.262-6.601,2.921-7.28,6.48l-13.68,50.4H9.2c-2.11,0.03-4.123,0.893-5.6,2.4c-1.497,1.51-2.332,3.554-2.32,5.68l0.48,32
			c0.009,2.138,0.873,4.183,2.4,5.68c1.503,1.449,3.513,2.253,5.6,2.24l352-4.8c4.418,0,8-3.582,8-8v-32
			C369.76,433.182,366.178,429.6,361.76,429.6z M237.2,328c17.52,0,32.56,20.64,35.44,46.8c-3.571,0.056-6.672,2.472-7.6,5.92
			l-13.68,50.4h-27.92l-15.04-50c-0.919-3.01-3.518-5.202-6.64-5.6C204.24,349.28,219.44,328,237.2,328z M125.2,327.68
			c18.08,0,33.12,21.44,35.6,48l-0.32,0.32c-3.571,0.056-6.672,2.472-7.6,5.92l-13.68,50.4l-27.92,0.4l-15.04-50
			c-0.931-3.034-3.567-5.232-6.72-5.6C91.68,349.76,107.12,327.68,125.2,327.68z M353.68,461.68l-336,4.56v-16h16
			c3.719,0.127,7.035-2.326,8-5.92l13.6-50.4h28l14.96,50c1.026,3.53,4.327,5.906,8,5.76l40-0.56c3.719,0.127,7.035-2.326,8-5.92
			l13.6-50.4l26.8-0.8l15.04,50c0.89,3.452,3.956,5.899,7.52,6l40-0.56c3.571-0.056,6.672-2.472,7.6-5.92l13.68-50.4l35.92-0.48
			L329.68,440c1.056,3.498,4.349,5.836,8,5.68h16V461.68z"/>
	</g>
</g>
<g>
	<g>
		<path d="M166.88,82.32l-29.68-29.6V8c0-4.418-3.582-8-8-8h-72c-4.418,0-8,3.582-8,8v44.72L3.52,98.32
			c-1.497,1.51-2.332,3.554-2.32,5.68v160c0,13.255,10.745,24,24,24h120c13.255,0,24-10.745,24-24V88
			C169.212,85.874,168.377,83.83,166.88,82.32z M65.2,16h56v16h-56V16z M153.2,264c0,4.418-3.582,8-8,8h-120c-4.418,0-8-3.582-8-8
			V107.28l45.68-45.6c1.497-1.51,2.332-3.554,2.32-5.68v-8h56v8c-0.012,2.126,0.823,4.17,2.32,5.68l29.68,29.6V264z"/>
	</g>
</g>
<g>
	<g>
		<path d="M134.88,90.32l-16-16c-2.3-2.27-5.741-2.933-8.72-1.68c-2.987,1.227-4.944,4.13-4.96,7.36v72c0,4.418,3.582,8,8,8h16
			c4.418,0,8-3.582,8-8V96C137.212,93.874,136.377,91.83,134.88,90.32z"/>
	</g>
</g>
<g>
	<g>
		<path d="M448.64,7.36c-15.644-5.229-32.88-1.958-45.52,8.64l-20.88,17.44C377.107,37.68,370.657,40,364,40h-6.48
			c-6.074-0.014-11.955-2.134-16.64-6l-16-13.52c-15.895-13.198-38.452-14.745-56-3.84l-4.64,2.88
			c-24.217,14.731-39.011,41.014-39.04,69.36v18.24c-0.044,42.415,34.305,76.836,76.72,76.88c0.053,0,0.107,0,0.16,0h36
			c37.132,0.009,71.998-17.856,93.68-48l8-10.64l27.92-27.92c8.726-8.937,13.583-20.95,13.52-33.44V52.56
			C481.241,32.044,468.112,13.819,448.64,7.36z M465.2,64c0.031,8.385-3.313,16.429-9.28,22.32l-28.4,28.4
			c-0.31,0.311-0.579,0.66-0.8,1.04l-8,11.2c-18.739,25.825-48.732,41.09-80.64,41.04h-36c-33.605-0.044-60.836-27.275-60.88-60.88
			V88.88c-0.132-22.783,11.595-43.996,30.96-56l4.64-2.96c5.107-3.199,11.014-4.89,17.04-4.88c7.514-0.011,14.793,2.623,20.56,7.44
			l16,13.52c7.561,6.455,17.178,10.001,27.12,10H364c10.406-0.015,20.48-3.666,28.48-10.32l20.88-17.44
			c13.858-10.968,33.984-8.624,44.951,5.234c4.241,5.359,6.656,11.936,6.889,18.766L465.2,64z"/>
	</g>
</g>
<g>
	<g>
		<path d="M324.72,74.64l-9.6-7.2c-13.785-10.339-33.341-7.545-43.68,6.24c-4.05,5.401-6.24,11.969-6.24,18.72v16
			c0.013,9.817,4.634,19.059,12.48,24.96l9.6,7.2c13.785,10.339,33.341,7.545,43.68-6.24c4.05-5.401,6.24-11.969,6.24-18.72v-16
			C337.187,89.783,332.566,80.541,324.72,74.64z M321.2,115.6c0.004,8.395-6.799,15.203-15.194,15.206
			c-3.156,0.001-6.233-0.979-8.806-2.806l-9.6-7.2c-4.006-2.861-6.389-7.477-6.4-12.4v-16c-0.004-8.395,6.799-15.203,15.194-15.206
			c3.156-0.001,6.233,0.979,8.806,2.806l9.6,7.2c4.006,2.861,6.389,7.477,6.4,12.4V115.6z"/>
	</g>
</g>
<g>
	<g>
		<path d="M116.24,176.64c-2.979-1.253-6.419-0.59-8.72,1.68l-18.32,18.4l-18.32-18.4c-2.3-2.27-5.741-2.933-8.72-1.68
			c-2.987,1.227-4.944,4.13-4.96,7.36v48h16v-28.72l10.32,10.4c3.111,3.137,8.177,3.158,11.314,0.046
			c0.016-0.015,0.031-0.031,0.046-0.046l10.32-10.4V232h16v-48C121.184,180.77,119.227,177.867,116.24,176.64z"/>
	</g>
</g>
<g>
</g>
<g>
</g>
<g>
</g>
<g>
</g>
<g>
</g>
<g>
</g>
<g>
</g>
<g>
</g>
<g>
</g>
<g>
</g>
<g>
</g>
<g>
</g>
<g>
</g>
<g>
</g>
<g>
</g>
</svg>
