<svg id="Capa_1" enable-background="new 0 0 503.097 503.097" height="512" viewBox="0 0 503.097 503.097" width="512" xmlns="http://www.w3.org/2000/svg"><g><path d="m409.899 238.601c51.39 0 93.198-41.809 93.198-93.198 0-4.142-3.358-7.5-7.5-7.5-51.39 0-93.198 41.809-93.198 93.198 0 4.142 3.358 7.5 7.5 7.5zm77.802-85.303c-3.711 36.825-33.082 66.196-69.907 69.907 3.711-36.825 33.082-66.196 69.907-69.907z"/><path d="m327.525 154.948-8.02 65.89c-.5 4.112 2.427 7.851 6.539 8.351.308.038.613.056.916.056 3.737 0 6.973-2.791 7.436-6.595l8.02-65.89c.5-4.112-2.427-7.851-6.539-8.351-4.117-.499-7.851 2.428-8.352 6.539z"/><path d="m45.946 387.269c4.112-.5 7.04-4.239 6.54-8.351l-27.25-223.97c-.5-4.111-4.231-7.037-8.351-6.54-4.112.5-7.04 4.239-6.54 8.351l27.25 223.97c.463 3.804 3.698 6.595 7.436 6.595.302.001.607-.018.915-.055z"/><path d="m337.86 139.634c3.792 0 6.987-2.83 7.445-6.594l7.4-60.84c.259-2.131-.408-4.271-1.831-5.878s-3.467-2.527-5.614-2.527h-65.89v-37.12c0-4.142-3.358-7.5-7.5-7.5h-190.98c-4.142 0-7.5 3.358-7.5 7.5v37.12h-65.89c-2.147 0-4.191.92-5.614 2.527s-2.09 3.747-1.831 5.878l7.4 60.84c.458 3.764 3.653 6.594 7.445 6.594zm-137.811-60.842c4.142 0 7.5-3.358 7.5-7.5s-3.358-7.5-7.5-7.5h-111.659v-29.618h175.98v37.12c0 4.142 3.358 7.5 7.5 7.5h64.922l-5.576 45.84h-309.673l-5.576-45.84z"/><path d="m268.389 468.923h-204.95l-7.13-58.607c-.5-4.112-4.239-7.032-8.351-6.54-4.112.5-7.04 4.239-6.54 8.351l7.933 65.201c.458 3.764 3.653 6.594 7.445 6.594h211.592c4.142 0 7.5-3.358 7.5-7.5s-3.357-7.499-7.499-7.499z"/><path d="m134.883 180.527c4.142 0 7.5-3.358 7.5-7.5s-3.358-7.5-7.5-7.5h-53.545c-4.142 0-7.5 3.358-7.5 7.5s3.358 7.5 7.5 7.5z"/><path d="m134.883 248.149h-53.545c-4.142 0-7.5 3.358-7.5 7.5s3.358 7.5 7.5 7.5h53.545c4.142 0 7.5-3.358 7.5-7.5 0-4.143-3.358-7.5-7.5-7.5z"/><path d="m134.883 330.77h-53.545c-4.142 0-7.5 3.358-7.5 7.5s3.358 7.5 7.5 7.5h53.545c4.142 0 7.5-3.358 7.5-7.5s-3.358-7.5-7.5-7.5z"/><path d="m134.883 413.391h-53.545c-4.142 0-7.5 3.358-7.5 7.5s3.358 7.5 7.5 7.5h53.545c4.142 0 7.5-3.358 7.5-7.5s-3.358-7.5-7.5-7.5z"/><path d="m463.406 318.614c-3.981 1.142-6.284 5.296-5.142 9.277 2.833 9.877 4.27 20.149 4.27 30.531 0 60.93-49.57 110.5-110.5 110.5s-110.5-49.57-110.5-110.5 49.57-110.501 110.5-110.501c38.703 0 73.923 19.712 94.215 52.729 2.168 3.529 6.787 4.632 10.317 2.462 3.529-2.169 4.631-6.788 2.462-10.317-23.042-37.491-63.04-59.875-106.994-59.875-69.201 0-125.5 56.299-125.5 125.501s56.299 125.5 125.5 125.5 125.5-56.299 125.5-125.5c0-11.781-1.632-23.444-4.851-34.667-1.141-3.979-5.293-6.28-9.277-5.14z"/><path d="m406.209 284.138c0-6.738-8.628-10.029-13.103-4.98-2.279 2.572-2.493 6.444-.544 9.264 1.784 2.581 5.118 3.78 8.141 2.942 3.209-.89 5.506-3.891 5.506-7.226z"/><path d="m406.09 306.078c2.545 6.033 11.317 6.041 13.85 0 1.283-3.06.316-6.744-2.31-8.778-2.318-1.796-5.558-2.081-8.149-.701-3.336 1.777-4.873 5.98-3.391 9.479z"/><path d="m379.949 437.138c-1.773-2.594-4.989-3.877-8.058-3.112-2.916.727-5.147 3.2-5.597 6.169-1.028 6.786 7.285 11.249 12.401 6.706 2.745-2.438 3.316-6.709 1.254-9.763z"/><path d="m398.019 302.228c-1.73-2.534-4.875-3.835-7.887-3.151-3.002.682-5.307 3.172-5.769 6.213-.461 3.03 1.062 6.118 3.722 7.623 2.806 1.588 6.417 1.167 8.784-1.02 2.657-2.454 3.182-6.653 1.15-9.665z"/><path d="m310.715 216.918c0-4.142-3.358-7.5-7.5-7.5h-259.488c-4.142 0-7.5 3.358-7.5 7.5s3.358 7.5 7.5 7.5h259.487c4.143 0 7.501-3.358 7.501-7.5z"/><path d="m188.649 298.938c-1.194-2.83-4.027-4.703-7.112-4.628-3.152.076-5.927 2.17-6.931 5.143-.991 2.936.027 6.336 2.473 8.242 2.554 1.989 6.101 2.114 8.8.343 2.971-1.949 4.08-5.831 2.77-9.1z"/><path d="m189.8 394.868c2.294 5.872 10.805 6.057 13.602.538 1.429-2.819.908-6.322-1.28-8.601-2.346-2.444-6.153-2.987-9.096-1.322-3.238 1.832-4.681 5.941-3.226 9.385z"/><path d="m76.159 309.058c3.143-.588 5.575-3.288 5.979-6.434.377-2.932-1.107-5.899-3.654-7.387-2.803-1.638-6.415-1.246-8.827.912-2.433 2.176-3.128 5.827-1.738 8.764 1.446 3.055 4.913 4.839 8.24 4.145z"/></g></svg>